<svg version="1.2" xmlns="http://www.w3.org/2000/svg" viewBox="0 0 744 294" width="744" height="294"><style>.a{fill:#ce7005}.b{fill:#fff}</style><path class="a" d="m622.9 221.2q0 0.3-1.6 0.4-18.5 0.9-47.8 2-0.1 0-0.2 0-0.1 0-0.1-0.1-0.1 0-0.1-0.1-0.1-0.1-0.1-0.2 0.1-0.9 0.1-1.9 0-1.1-0.1-2 0-0.1 0.1-0.2 0-0.1 0.1-0.1 0-0.1 0.1-0.1 0.1-0.1 0.2 0 29.3 1.1 47.8 2 1.6 0.1 1.6 0.3z"/><path class="a" d=""/><path class="a" d="m136.9 220.9q0 1 0 1.9 0 0.1 0 0.2 0 0.1-0.1 0.1-0.1 0.1-0.2 0.1 0 0.1-0.1 0.1-29.6-1.2-48.3-2.1-1.5 0-1.5-0.3 0-0.2 1.5-0.3 18.7-0.9 48.3-2.2 0.1 0 0.1 0.1 0.1 0 0.2 0.1 0.1 0 0.1 0.1 0 0.1 0 0.2 0 0.9 0 2z"/><path class="a" d="m637.5 163.3l-39.3-39.3q-0.1 0-0.1-0.1 0 0 0-0.1 0-0.1 0-0.1 0-0.1 0.1-0.1l17.9-18q0.1 0 0.1 0 0.1-0.1 0.2-0.1 0 0 0.1 0.1 0 0 0.1 0l57.3 57.3q0 0.1 0 0.1 0.1 0.1 0 0.2 0 0.1-0.1 0.2-0.1 0-0.2 0h-35.9q0 0-0.1 0 0 0 0 0 0 0-0.1 0 0 0 0-0.1z"/><path fill-rule="evenodd" class="b" d="m168.4 163.2l-13-23.2q0-0.1-0.1-0.1 0-0.1-0.1-0.1-0.1-0.1-0.2-0.1-0.1 0-0.2 0h-72.6q-0.1 0-0.2 0-0.1 0-0.2 0.1-0.1 0-0.1 0.1-0.1 0.1-0.1 0.1l-12.7 23.2q0 0.1-0.1 0.1-0.1 0.1-0.2 0.2 0 0-0.1 0-0.1 0.1-0.2 0.1h-31.4q-0.2 0-0.4-0.1-0.1-0.1-0.2-0.3-0.1-0.2-0.1-0.4 0-0.2 0-0.3l62.1-113.5q0-0.1 0.1-0.1 0-0.1 0.1-0.2 0.1 0 0.2 0 0.1-0.1 0.2-0.1h38.3q0.1 0 0.2 0.1 0.1 0 0.2 0 0 0.1 0.1 0.2 0.1 0 0.1 0.1l63.4 113.5q0.1 0.1 0.1 0.3 0 0.2-0.1 0.4-0.1 0.2-0.3 0.3-0.2 0.1-0.4 0.1h-31.5q-0.1 0-0.2-0.1-0.1 0-0.2 0 0-0.1-0.1-0.1-0.1-0.1-0.1-0.2zm-75.6-44.8q-0.1 0.1-0.1 0.2 0 0.2 0.1 0.3 0 0.1 0.1 0.1 0.1 0.1 0.2 0.1l50.8-0.1q0.1 0 0.2-0.1 0.1 0 0.1-0.1 0.1-0.1 0.1-0.2 0-0.2-0.1-0.2l-25.4-47.1q-0.1-0.1-0.2-0.2-0.1 0-0.2 0-0.1 0-0.2 0-0.1 0.1-0.1 0.2zm400.2-48.3h-85.8q-0.1 0-0.2 0-0.1 0.1-0.2 0.2-0.1 0-0.1 0.1 0 0.1 0 0.2v24.4q0 0.1 0 0.2 0 0.1 0.1 0.2 0.1 0 0.2 0.1 0.1 0 0.2 0h72.8q0.1 0 0.2 0.1 0.1 0 0.2 0.1 0 0.1 0.1 0.2 0 0.1 0 0.2v19.7q0 0.1 0 0.2-0.1 0.1-0.1 0.2-0.1 0-0.2 0.1-0.1 0-0.2 0h-72.9q-0.1 0-0.2 0.1-0.1 0-0.2 0.1 0 0-0.1 0.1 0 0.1 0 0.3v24.7q0 0.1 0 0.2 0.1 0.1 0.1 0.1 0.1 0.1 0.2 0.2 0.1 0 0.2 0h88q0.1 0 0.2 0 0.1 0.1 0.2 0.2 0 0 0.1 0.1 0 0.1 0 0.2v20.3q0 0.1 0 0.2-0.1 0.1-0.1 0.1-0.1 0.1-0.2 0.1-0.1 0.1-0.2 0.1h-118.1q-0.1 0-0.2-0.1-0.1 0-0.2-0.1 0 0-0.1-0.1 0-0.1 0-0.2v-113.8q0-0.1 0-0.2 0.1-0.1 0.1-0.2 0.1 0 0.2-0.1 0.1 0 0.2 0h116q0.1 0 0.2 0 0.1 0.1 0.2 0.1 0.1 0.1 0.1 0.2 0.1 0.1 0.1 0.2v20.5q0 0.1-0.1 0.2 0 0.1-0.1 0.1-0.1 0.1-0.2 0.2-0.1 0-0.2 0zm97.6 10.6l-19 18.1q-0.1 0-0.2 0.1 0 0-0.1 0 0 0-0.1 0-0.1-0.1-0.1-0.1l-51.5-49.7q0-0.1 0-0.2-0.1-0.1 0-0.2 0-0.1 0.1-0.1 0.1-0.1 0.2-0.1h38.9q0 0 0.1 0 0 0 0 0 0.1 0 0.1 0.1 0 0 0 0l31.6 31.6q0 0 0.1 0.1 0 0 0 0.1 0 0.1 0 0.1-0.1 0.1-0.1 0.2zm80.1-31.6q-10.4 9.6-31.7 28.4-32.2 28.4-53.7 50.3-14.9 15.2-16 16.4-10.7 11.3-18.6 18.8-0.1 0.1-0.2 0.1-0.1 0.1-0.2 0.1-0.2 0.1-0.3 0.1-0.1 0-0.2 0h-36.6q-0.2 0-0.3-0.1-0.1 0-0.2-0.2 0-0.1 0-0.3 0-0.1 0.2-0.3l118.9-113.4q0.1-0.1 0.2-0.2 0.2-0.1 0.4-0.2 0.1 0 0.3-0.1 0.2 0 0.4 0h37.4q0.1 0 0.2 0.1 0 0 0.1 0.1 0 0.1 0 0.2 0 0.1-0.1 0.2zm-420.5 114.1h-29.2q-0.2 0-0.3 0-0.1-0.1-0.2-0.2-0.1 0-0.1-0.2 0-0.1-0.1-0.2l0.1-113.6q0-0.1 0-0.1 0-0.1 0.1-0.2 0 0 0.1-0.1 0.1 0 0.1 0 19.4 0 77.9 0 7.4 0 11.7 0.5c9.7 1 18.9 2.5 27.5 8.1q10.8 6.9 12.6 20.5 1.9 13.4-0.7 24.9c-4.5 19.8-23.1 22.4-39.7 24.1q-5.2 0.6-13.5 0.5-18.5 0-45.3 0-0.1 0-0.2 0.1-0.1 0-0.1 0.1-0.1 0-0.1 0.1-0.1 0.1-0.1 0.2v35q0 0.1 0 0.2 0 0.1-0.1 0.2-0.1 0-0.2 0.1-0.1 0-0.2 0zm0.4-92.3v34.7q0 0.1 0.1 0.2 0 0.1 0.1 0.2 0.1 0.1 0.2 0.2 0.1 0 0.3 0l50.9-0.1c2.3 0 4.6-0.4 6.7-1.2 2.2-0.7 4.1-1.9 5.8-3.3 1.6-1.4 2.9-3.1 3.8-5 0.9-1.8 1.4-3.8 1.4-5.9v-5.2c0-2-0.5-4-1.4-5.9-0.9-1.8-2.2-3.5-3.8-5-1.7-1.4-3.7-2.5-5.8-3.3-2.2-0.7-4.5-1.1-6.8-1.1l-50.9 0.1q-0.1 0-0.2 0-0.2 0.1-0.2 0.1-0.1 0.1-0.2 0.3 0 0.1 0 0.2zm-53.6 158.2c0 1.2-0.2 2.4-0.7 3.5-0.4 1.1-1.1 2.1-2 3-0.8 0.9-1.8 1.5-3 2-1.1 0.5-2.3 0.7-3.5 0.7h-16.1c-1.2 0-2.4-0.2-3.5-0.7-1.2-0.4-2.2-1.1-3-2-0.9-0.8-1.6-1.8-2-2.9-0.5-1.2-0.8-2.4-0.8-3.6v-13.8c0-1.2 0.3-2.4 0.7-3.5 0.5-1.1 1.2-2.1 2-3 0.9-0.9 1.9-1.5 3-2 1.1-0.5 2.3-0.7 3.5-0.7h16.1c1.3 0 2.5 0.2 3.6 0.7 1.1 0.4 2.1 1.1 3 2 0.8 0.8 1.5 1.8 2 2.9 0.5 1.2 0.7 2.4 0.7 3.6zm-8.2-12.6q0-0.7-0.3-1.4-0.3-0.7-0.8-1.2-0.6-0.5-1.2-0.8-0.7-0.3-1.5-0.3h-10.7q-0.8 0-1.5 0.3-0.6 0.3-1.2 0.8-0.5 0.5-0.8 1.2-0.2 0.7-0.2 1.4v11.8q0 0.7 0.3 1.4 0.2 0.7 0.8 1.2 0.5 0.5 1.2 0.8 0.7 0.3 1.4 0.3h10.8q0.7 0 1.4-0.3 0.7-0.3 1.2-0.8 0.5-0.5 0.8-1.2 0.3-0.7 0.3-1.4zm42.3 14.6q0.2 0 0.3-0.1 0 0 0 0 0 0 0-0.1 0 0 0 0 0 0 0 0l10.4-24.3q0.1-0.1 0.1-0.1 0-0.1 0.1-0.1 0 0 0.1-0.1 0 0 0.1 0h8.7q0 0 0 0.1 0.1 0 0.1 0 0 0 0 0.1 0 0 0 0l-14.3 31.1q0 0.2-0.1 0.3-0.1 0-0.2 0.1-0.1 0.1-0.2 0.1-0.1 0.1-0.2 0.1-0.2 0.1-4.9 0-4.7 0-4.9 0-0.1 0-0.2-0.1-0.1 0-0.2-0.1-0.1-0.1-0.2-0.2-0.1-0.1-0.1-0.2l-14.1-31.2q0 0 0-0.1 0 0 0 0 0-0.1 0.1-0.1 0 0 0 0l8.7 0.1q0.1 0 0.1 0 0.1 0 0.1 0 0.1 0.1 0.1 0.1 0 0 0.1 0.1l10.2 24.4q0 0 0 0 0 0 0 0 0 0.1 0 0.1 0 0 0 0 0.2 0.1 0.3 0.1zm61.5-8.8q0 1.4-0.2 2.3 0 0.1-0.1 0.2 0 0.2-0.1 0.2-0.1 0.1-0.2 0.2-0.1 0-0.3 0h-16.3q-0.1 0-0.3 0.1-0.1 0-0.3 0.1-0.1 0.2-0.1 0.3-0.1 0.1-0.1 0.3v5.3q0 0.1 0.1 0.3 0 0.1 0.1 0.2 0.1 0.1 0.3 0.2 0.1 0 0.2 0h20.3q0.2 0 0.3 0.1 0.1 0 0.2 0.1 0 0.1 0.1 0.2 0 0.1 0 0.2v5q0 0.1 0 0.3-0.1 0.1-0.2 0.2-0.1 0.1-0.2 0.1-0.1 0.1-0.3 0.1h-28.4q-0.2 0-0.3 0-0.1-0.1-0.2-0.2-0.1-0.1-0.1-0.2-0.1-0.1-0.1-0.2 0-1.4 0-15.4 0-14 0-15.3 0-0.1 0-0.3 0.1-0.1 0.2-0.2 0.1 0 0.2-0.1 0.1 0 0.2 0l28.5-0.2q0.1 0.1 0.2 0.1 0.2 0.1 0.3 0.2 0.1 0 0.1 0.2 0.1 0.1 0.1 0.2v5q0 0.1 0 0.2-0.1 0.2-0.2 0.2-0.1 0.1-0.2 0.2-0.1 0-0.2 0l-20.3 0.1q-0.1 0-0.3 0.1-0.1 0-0.2 0.1-0.1 0.1-0.2 0.3 0 0.1 0 0.2v5.3q0 0.2 0.1 0.3 0 0.2 0.1 0.3 0.1 0.1 0.3 0.2 0.1 0 0.3 0h16.3q0.1 0 0.3 0 0.1 0 0.2 0.1 0.1 0.1 0.1 0.2 0.1 0.1 0.1 0.2 0.2 0.9 0.2 2.4zm47.5 5.8l8.2 10.1q0 0 0 0 0 0 0 0.1 0 0 0 0 0 0 0 0h-9.3q-0.1 0-0.2 0 0 0-0.1-0.1 0 0-0.1 0 0-0.1-0.1-0.1l-7.2-9.7q-0.1-0.1-0.2-0.2 0 0-0.1-0.1-0.1 0-0.3-0.1-0.1 0-0.2 0h-7.2q-0.1 0-0.3 0.1-0.1 0-0.2 0.1-0.1 0.1-0.1 0.2-0.1 0.2-0.1 0.3v9.3q0 0 0 0.1 0 0-0.1 0.1 0 0 0 0-0.1 0-0.1 0h-7.5q0 0-0.1 0-0.1 0-0.1-0.1-0.1 0-0.1-0.1-0.1-0.1-0.1-0.1v-30.9q0-0.1 0.1-0.2 0-0.1 0.1-0.2 0.1-0.1 0.2-0.2 0.2 0 0.3 0 16.8-0.5 24.2 0.1c5.2 0.4 7.4 3.6 7.3 8.8-0.1 5.7 0.6 10.3-6.4 12.2q-0.1 0-0.1 0.1-0.1 0.1-0.1 0.2-0.1 0.1-0.1 0.2 0.1 0 0.1 0.1zm-17.5-14.5v7.2q0 0.2 0.1 0.4 0.1 0.1 0.2 0.3 0.1 0.1 0.3 0.2 0.1 0 0.3 0h11.8q0.6 0 1.2-0.2 0.6-0.2 1.1-0.6 0.4-0.5 0.7-1 0.2-0.5 0.2-1.1v-3.2q0-0.6-0.2-1.1-0.3-0.6-0.7-1-0.5-0.4-1.1-0.6-0.6-0.3-1.2-0.2h-11.8q-0.2 0-0.3 0-0.2 0.1-0.3 0.2-0.2 0.2-0.2 0.3-0.1 0.2-0.1 0.4zm43.9-7.3h7.1q0.1 0 0.2 0 0.1 0.1 0.2 0.2 0.1 0 0.1 0.1 0 0.1 0 0.3v24.4q0 0.2 0.1 0.3 0 0.1 0.1 0.1 0.1 0.1 0.2 0.2 0.1 0 0.2 0h18.7q0.1 0 0.2 0 0.1 0.1 0.2 0.2 0.1 0 0.1 0.1 0 0.1 0 0.3v5.2q0 0.2 0 0.3 0 0.1-0.1 0.1-0.1 0.1-0.2 0.2-0.1 0-0.2 0h-26.9q-0.1 0-0.2 0-0.1-0.1-0.2-0.2-0.1 0-0.1-0.1-0.1-0.1-0.1-0.2v-30.9q0-0.2 0.1-0.3 0-0.1 0.1-0.1 0.1-0.1 0.2-0.2 0.1 0 0.2 0zm58.5-0.1q2.5 0 4.8 0.1 0.1 0 0.2 0 0.1 0 0.1 0.1 0.1 0 0.2 0.1 0 0.1 0.1 0.2l14.7 30.6q0.1 0.2 0.1 0.3-0.1 0.2-0.1 0.3-0.1 0.2-0.3 0.2-0.1 0.1-0.3 0.1h-6.6q-0.3 0-0.5-0.1-0.3 0-0.5-0.2-0.3-0.1-0.4-0.3-0.2-0.3-0.3-0.5l-2.2-4.5q-0.1-0.1-0.2-0.2 0-0.1-0.2-0.2-0.1-0.1-0.2-0.1-0.2-0.1-0.3-0.1-3.1-0.1-8-0.1-4.9 0.1-8 0.2-0.1 0-0.2 0-0.2 0.1-0.3 0.2-0.1 0-0.2 0.1-0.1 0.2-0.2 0.3l-2.1 4.5q-0.1 0.2-0.3 0.4-0.2 0.3-0.4 0.4-0.2 0.2-0.5 0.2-0.3 0.1-0.6 0.1l-6.6 0.1q-0.1 0-0.3-0.1-0.1-0.1-0.2-0.2-0.1-0.2-0.1-0.3 0-0.2 0.1-0.3l14.4-30.8q0.1-0.1 0.1-0.1 0.1-0.1 0.2-0.2 0.1 0 0.1 0 0.1-0.1 0.2-0.1 2.3 0 4.8-0.1zm-5.9 19.3q0 0.1 0 0.2 0 0.1 0.1 0.2 0 0.1 0.1 0.1 0.1 0 0.2 0l11.1 0.1q0.1 0 0.1-0.1 0.1 0 0.2-0.1 0-0.1 0-0.2 0-0.1 0-0.2l-5.5-11.6q0-0.1-0.1-0.1-0.1-0.1-0.2-0.1-0.1 0-0.2 0.1-0.1 0-0.2 0.1zm48.9 12.8h-7.2q0 0-0.1-0.1-0.1 0-0.1 0-0.1-0.1-0.1-0.1 0-0.1 0-0.2v-31.3q0 0 0-0.1 0 0 0.1-0.1 0 0 0.1-0.1 0.1 0 0.1 0h9.8q0 0 0 0 0.1 0 0.1 0.1 0.1 0 0.1 0 0 0 0 0.1l15.3 22.4q0.1 0.1 0.2 0.1 0.1 0 0.2 0 0.1 0 0.2-0.1 0-0.1 0-0.2v-22.1q0 0 0.1-0.1 0 0 0-0.1 0.1 0 0.1-0.1 0.1 0 0.2 0h7.1q0.1 0 0.1 0 0.1 0.1 0.1 0.1 0.1 0.1 0.1 0.1 0 0.1 0 0.1v31.3q0 0.1 0 0.1 0 0.1-0.1 0.2 0 0-0.1 0 0 0-0.1 0h-9.6q-0.1 0.1-0.1 0-0.1 0-0.1 0 0 0-0.1 0 0-0.1 0-0.1l-15.4-21.5q0-0.1-0.1-0.1-0.1-0.1-0.2 0-0.1 0-0.2 0.1-0.1 0.1-0.1 0.2v21.1q0 0.1 0 0.2 0 0-0.1 0.1 0 0-0.1 0 0 0.1-0.1 0.1zm46.3-31.4q0-0.1 0-0.3 0.1-0.1 0.2-0.2 0.1-0.1 0.2-0.1 0.1-0.1 0.3-0.1h21.3c1.5 0 3 0.3 4.4 0.8 1.3 0.5 2.6 1.3 3.6 2.2 1.1 1 1.9 2.1 2.5 3.4 0.6 1.2 0.8 2.5 0.8 3.9v11.3c0 1.4-0.2 2.7-0.8 4-0.6 1.2-1.4 2.4-2.5 3.3-1 1-2.3 1.7-3.6 2.2-1.4 0.6-2.9 0.8-4.4 0.8h-21.3q-0.2 0-0.3 0-0.1-0.1-0.2-0.2-0.1-0.1-0.2-0.2 0-0.1 0-0.3zm8.1 6.6v17.7q0 0.1 0.1 0.3 0 0.1 0.1 0.2 0.1 0.1 0.2 0.2 0.2 0 0.3 0h10.8q1.1 0 2.2-0.3 1-0.4 1.8-1.1 0.8-0.6 1.2-1.5 0.4-0.9 0.4-1.8v-9.7q0-1-0.4-1.8-0.4-0.9-1.2-1.6-0.8-0.6-1.8-1-1.1-0.3-2.2-0.4h-10.8q-0.1 0.1-0.3 0.1-0.1 0.1-0.2 0.2-0.1 0.1-0.1 0.2-0.1 0.1-0.1 0.3z"/></svg>